/* XPM */
static char *ba49a717360d41bdf01402866464129afxJ4WQywhnW2qWty[] = {
/* columns rows colors chars-per-pixel */
"64 64 202 2 ",
"   c None",
".  c gray4",
"X  c #0B0B0B",
"o  c #0C0C0C",
"O  c gray5",
"+  c #0E0E0E",
"@  c gray6",
"#  c #101010",
"$  c #111111",
"%  c gray7",
"&  c #121213",
"*  c #121313",
"=  c #131313",
"-  c #131414",
";  c gray8",
":  c #151515",
">  c #161616",
",  c gray9",
"<  c #14181A",
"1  c #111B1E",
"2  c #181818",
"3  c #191919",
"4  c gray10",
"5  c #1B1B1B",
"6  c #1A1D1D",
"7  c gray11",
"8  c #1D1D1D",
"9  c #1E1E1E",
"0  c gray12",
"q  c #17262B",
"w  c #1A2F36",
"e  c #202020",
"r  c gray13",
"t  c #232323",
"y  c gray14",
"u  c gray15",
"i  c #282828",
"p  c gray17",
"a  c #2C2C2C",
"s  c #2D2D2D",
"d  c #2C2D2E",
"f  c gray18",
"g  c #2A3335",
"h  c gray19",
"j  c #313131",
"k  c #323232",
"l  c gray20",
"z  c #353535",
"x  c gray21",
"c  c #373737",
"v  c #373838",
"b  c #393939",
"n  c #3A3A3A",
"m  c gray24",
"M  c #16404D",
"N  c #174250",
"B  c #174352",
"V  c #114A5D",
"C  c #165B71",
"Z  c #295665",
"A  c #236378",
"S  c #484848",
"D  c gray31",
"F  c #5B5B5B",
"G  c #5D5D5D",
"H  c #6F6F6F",
"J  c #747474",
"K  c gray46",
"L  c #146A86",
"P  c #136F8D",
"I  c #187290",
"U  c #1481A3",
"Y  c #1483A5",
"T  c #1F87A8",
"R  c #158AAF",
"E  c #1D8BAE",
"W  c #158DB1",
"Q  c #1D94B9",
"!  c #1C97BC",
"~  c #1798BE",
"^  c #169AC0",
"/  c #18A2C9",
"(  c #18A6CC",
")  c #19A6CC",
"_  c #1CA7CE",
"`  c #8B8B8B",
"'  c #929292",
"]  c gray60",
"[  c gray62",
"{  c gray66",
"}  c gray67",
"|  c #AEAEAC",
" . c #AEAEAD",
".. c #B0B0AE",
"X. c #B0B0AF",
"o. c gray69",
"O. c #B1B1B0",
"+. c #B2B2B1",
"@. c #B2B2B2",
"#. c #B3B3B2",
"$. c #B4B4B2",
"%. c #B4B4B4",
"&. c #B6B6B6",
"*. c #B7B7B6",
"=. c #B8B8B7",
"-. c gray72",
";. c #B9B9B8",
":. c #B9B9B9",
">. c #BABAB9",
",. c #BBBBBA",
"<. c #BBBBBB",
"1. c #BCBCBC",
"2. c #BDBDBC",
"3. c gray",
"4. c gray75",
"5. c #C0C0C0",
"6. c #C1C1C1",
"7. c gray76",
"8. c #C3C3C2",
"9. c #C3C3C3",
"0. c #C5C5C5",
"q. c #C6C5C5",
"w. c #C6C6C6",
"e. c #C7C6C6",
"r. c gray78",
"t. c #C8C8C8",
"y. c #C9C9C8",
"u. c #C8C9C9",
"i. c gray79",
"p. c #CACACA",
"a. c #CBCACA",
"s. c #CBCBCB",
"d. c gray80",
"f. c #CDCDCC",
"g. c #CDCDCD",
"h. c #CECECE",
"j. c gray81",
"k. c #D0CFCF",
"l. c #D0D0D0",
"z. c gray82",
"x. c #D2D1D1",
"c. c #D2D2D2",
"v. c #D3D2D2",
"b. c LightGray",
"n. c gray83",
"m. c #D5D5D5",
"M. c gray84",
"N. c #D7D6D6",
"B. c #D7D7D7",
"V. c #D8D7D7",
"C. c #D8D8D8",
"Z. c #D9D8D8",
"A. c gray85",
"S. c #DADADA",
"D. c gray86",
"F. c gainsboro",
"G. c #DDDDDD",
"H. c gray87",
"J. c #DFDEDE",
"K. c #DFDFDF",
"L. c gray88",
"P. c #E1E1E1",
"I. c #E2E2E2",
"U. c gray89",
"Y. c #E3E4E4",
"T. c #E4E4E4",
"R. c gray90",
"E. c #E6E6E6",
"W. c #E7E7E7",
"Q. c gray91",
"!. c #E9E9E9",
"~. c #EAEAEA",
"^. c #EAEBEB",
"/. c gray92",
"(. c #ECECEC",
"). c gray93",
"_. c #EEEEEE",
"`. c #EFEFEF",
"'. c #EFF0F0",
"]. c #EFF0F1",
"[. c gray94",
"{. c #F1F1F1",
"}. c gray95",
"|. c #F2F3F3",
" X c #F3F3F3",
".X c #F3F4F4",
"XX c #F4F4F4",
"oX c gray96",
"OX c #F5F6F6",
"+X c #F6F6F6",
"@X c #F6F7F7",
"#X c gray97",
"$X c #F7F8F8",
"%X c #F8F8F8",
"&X c #F8F9F9",
"*X c #F9F9F9",
"=X c gray98",
"-X c #FBFBFB",
";X c gray99",
":X c #FDFDFD",
">X c #FEFEFE",
",X c white",
/* pixels */
"                                                                                                                                ",
"                                                        ).{.{.{.{.{.{.{.                                                        ",
"                                                    {.OX{.{.{.).).).).T.T.).                                                    ",
"                                                '.OX{.} m p u : : : = s ] P.T.).                                                ",
"                                              OXOX` s c b b 7 7 7 2 2 : : = J P.T.                                              ",
"                                            $XOXl l c b b r 7 7 7 7 2 2 2 : = 2 K.T.                                            ",
"                                          OXOXs l c c v l 7 7 7 7 7 2 2 : : = = : K.T.                                          ",
"                                        ^.%XH s l Z T Q I w 7 7 7 2 q L R U V - = D K.T.                                        ",
"                                        %XOXu s A _ ! E ~ ) C 2 2 N ) ^ Y W / P = @ Z.K.                                        ",
"                                      T.$X@.u p g s s p 2 6 N 2 2 M < = = = = 1 = @ ` Z.K.                                      ",
"                                      ).OXG u p p p p 7 2 2 2 2 : = = = = = = = = @ m Z.K.                                      ",
"                                      .XOXS 7 r r r r 2 : : : = = = = = = = = = = @ s Z.m.                                      ",
"                                      {.OX] 2 7 7 r 7 : = = = = @ = @ @ = = = = @ @ K m.l.                                      ",
"                                      ).{.).r 2 2 2 2 : = @ @ @ @ @ @ @ @ @ @ @ @ = Z.m.f.                                      ",
"                                      T.{.).T.F = : : : @ @ @ @ @ @ @ @ @ @ @ X S Z.m.l.i.Z.                                    ",
"                                      T.P.'.T.P.K.[ c = @ X X X X X X X @ s ' m.m.m.l.f.i.                                      ",
"                                      P.P.K.Y.K.K.K.Z.m.Z.Z.m.l.l.m.Z.Z.Z.Z.Z.m.m.b.f.i.f.                                      ",
"                                      P.l.m.Z.Z.Z.Z.m.m.m.m.B.Z.Z.Z.Z.Z.m.m.m.l.l.f.i.r.i.                                      ",
"                                        K.f.f.l.l.l.l.l.l.l.m.m.m.m.m.m.m.l.l.f.i.r.r.r.                                        ",
"                                          m.6.r.f.f.f.f.f.l.l.l.l.l.l.l.f.f.i.r.6.*.6.                                          ",
"                                      P.P.K.Z.f.=.$.,.6.r.i.i.i.i.i.i.r.6.,.@...4.m.K.P.P.                                      ",
"                                    %X{.T.Z.l.l.f.f.i.4.*.@...| | | ..@.,.6.i.f.k.l.V.T.{.P.                                    ",
"                                    >XOX).K.m.l.f.i.i.r.r.r.r.r.r.r.r.r.r.i.i.f.f.m.K.).OX^.                                    ",
"                                    K.T.OX{.^.T.P.K.Z.m.m.l.l.l.l.l.l.m.m.Z.D.K.P.^.{.OX).m.                                    ",
"                                  {.l.,.Z.).).{.{.{.{.{.).).).).).).).).{.{.OXOXOXOXOXT.l.P.{.                                  ",
"                              >X%X%X).,.r.).{.{.{.{.).{.{.{.{.{.OXOXOXOXOXOXOXOXOXOX{.m.Z.%X%X{.K.                              ",
"                              >X>X>X{.,.i.^.{.OXOXOX).).{.{.{.{.{.OXOXOXOXOXOXOXOX{.{.Z.P.>X>X%XP.                              ",
"                              %X>X>X{.,.i.^.{.OXOXOX).).).{.{.{.{.{.OXOXOXOXOXOX{.{.).K.T.>X>X>XT.                              ",
"                              %X>X>X).,.i.T.{.{.OXOX^.).).).{.{.{.XXXXOXOXOXOXXX{.[.^.P.^.>X>X%XP.                              ",
"                              %X>X%X).,.f.T.{.{.OXOX).).).).{.{.{.XXOXOXOXOXOXXX{.).^.T.).>X>X%XP.                              ",
"                              OX%X%X).,.f.P.{.OXOXOX).).).{.{.{.{.OXOXOXOXOXOX{.{.).^.T.{.>X>XOXK.                              ",
"                              OX%X%X).,.f.P.{.OXOXOX).).).{.{.{.{.OXOXOXOXOXOX{.{.).^.T.OX>X>XOXZ.                              ",
"                              OXOXOX^.6.f.K.).OXOXOX).).{.{.{.{.OXOXOXOX%X%XOX{.{.)./.T.%X%X>X{.m.                              ",
"                              OXOXOX^.r.i.Z.).OXOXOX{.{.{.{.{.OXOXOXOX%X%X%XOX{.{.).^.P.%X%X%X).l.                              ",
"                              %X{.OX).l.i.Z.).OXOXOX{.{.{.{.OXOXOXOX%X%X%X%XOX{.{.).T.K.%X%X%X^.i.                              ",
"                              >X{.OX).Z.i.Z.).OXOXOX{.{.{.OXOXOXOXOX%X%X%X%XOX{.{.).T.Z.OX%XOXT.6.                              ",
"                                ).OX).K.r.Z.).OXOXOX{.{.{.OXOXOXOX%X%X%X%X%XOXOX{.).P.m.OX%X{.K.6.                              ",
"                                ).{.{.P.6.Z.{.OXOX%XOX{.OXOXOXOX%X%X%X%X%X%XOXOX{.).K.m.XXOX).Z.                                ",
"                                {.{.{.T.,.Z.).OX%X%XOXOXOXOXOX%X%X%X%X-X>X%XOXXX{.^.K.P.{.OX^.l.                                ",
"                                %X{.{.^.4.m.^.OX%X%XOXOXOXOX%X%X%X%X-X-X%X%XOX{.{.^.Z.{.{.{.T.r.                                ",
"                                  ).{.^.i.l.T.OX%X%XOXOX#X%X%X%X%X%X%X%X%X%XOX{.).P.m.%X{.).K.4.                                ",
"                                  ).{.^.m.l.P.OX%X%X%XOX#X%X%X%X%X%X>X>X%XOXOX{.).Z.f.{.).^.m.                                  ",
"                                  OX).).K.i.P.OX%X%X%X%X%X%X%X%X%X>X>X%X%XOXOX{.^.m.f.^.^.P.r.                                  ",
"                                  %X^.^.P.4.K.{.%X%X%X%X%X%X%X>X>X>X>X%X%XOX{.).^.l.m.P.T.Z.4.                                  ",
"                                    T.^.P.4.m.).%X%X%X%X%X%X%X>X>X>X>X%X%XOX{.^.P.i.^.P.K.f.                                    ",
"                                    OXT.K.6.f.P.OX%X%X%X%X%X%X>X>X>X%X%XOX{.).^.Z.6.^.Z.m.4.                                    ",
"                                      P.Z.r.m.m.OXOX%X%X%X%X%X>X>X>X%X%X{.).^.T.i.r.K.f.r.                                      ",
"                                      T.m.6.^.T.OX{.OXOX%X%X%X%X%X%X%XOX{.).T.P.Z.^.f.6.*.                                      ",
"                                        f.} Z.OXOX{.{.OXOXOX%X%XOXOXOX{.).^.P.K.T.T.i.@.                                        ",
"                                              T.OX{.{.{.{.OXOXOXOX{.).).T.P.K.K.).                                              ",
"                                                ).OX{.).{.{.{.{.{.).^.T.P.K.K.^.T.                                              ",
"                                                Z.).{.).).).).).).^.T.P.K.Z.T.).                                                ",
"                                                  Z.).).).^.^.^.T.T.P.K.Z.P.{.                                                  ",
"                                                    m.^.^.^.T.P.P.K.K.Z.T.OX                                                    ",
"                                                      f.T.^.T.P.K.K.T.{.{.                                                      ",
"                                                          m.T.^.).{.{.                                                          ",
"                                                                                                                                ",
"                                                                                                                                ",
"                                                                                                                                ",
"                                                                                                                                ",
"                                                                                                                                ",
"                                                                                                                                ",
"                                                                                                                                ",
"                                                                                                                                "
};
