/* XPM */
static char *cfe46aece8994e4091027c58cf81e769eyEMEuy1vlptRmYY[] = {
/* columns rows colors chars-per-pixel */
"64 64 241 2 ",
"   c None",
".  c #020100",
"X  c #0B0501",
"o  c #0E0B03",
"O  c #140B01",
"+  c #1B0C02",
"@  c #190600",
"#  c #1C1205",
"$  c #181E10",
"%  c #240D01",
"&  c #280A00",
"*  c #310B01",
"=  c #2C1401",
"-  c #2B1903",
";  c #2D1D0A",
":  c #241606",
">  c #321501",
",  c #341A02",
"<  c #3C1C01",
"1  c #3C1C0B",
"2  c #341B08",
"3  c #3D2202",
"4  c #39250B",
"5  c #392914",
"6  c #212C10",
"7  c #411B06",
"8  c #432302",
"9  c #492602",
"0  c #462905",
"q  c #4B2B04",
"w  c #43240D",
"e  c #4B2C0A",
"r  c #46290C",
"t  c #532F06",
"y  c #4D320A",
"u  c #543105",
"i  c #5C3403",
"p  c #5D3905",
"a  c #54340B",
"s  c #5C3B0D",
"d  c #593708",
"f  c #472913",
"g  c #4A3316",
"h  c #523413",
"j  c #543C1A",
"k  c #5C3C1B",
"l  c #593C15",
"z  c #502F13",
"x  c #643D0C",
"c  c #633804",
"v  c #683D10",
"b  c #473723",
"n  c #5F3D25",
"m  c #1D7713",
"M  c #2F4517",
"N  c #5D421B",
"B  c #6C430C",
"V  c #68430A",
"C  c #7A4B0E",
"Z  c #78490F",
"A  c #6A4414",
"S  c #63431C",
"D  c #6B4A1C",
"F  c #674517",
"G  c #744B15",
"H  c #724B1B",
"J  c #784B18",
"K  c #7A5218",
"L  c #6D5116",
"P  c #4F4226",
"I  c #5B4824",
"U  c #5A4826",
"Y  c #554C34",
"T  c #654422",
"R  c #6B4A24",
"E  c #6C4D29",
"W  c #674823",
"Q  c #6B522A",
"!  c #785527",
"~  c #6B4F32",
"^  c #675636",
"/  c #745D33",
"(  c #795934",
")  c #714F2B",
"_  c #7A6337",
"`  c #51762C",
"'  c #766749",
"]  c #85561A",
"[  c #93590E",
"{  c #8B611D",
"}  c #9A6616",
"|  c #9B721F",
" . c #A76814",
".. c #B26E11",
"X. c #B77A19",
"o. c #AA6E13",
"O. c #845B23",
"+. c #865B26",
"@. c #875F36",
"#. c #8C642C",
"$. c #886429",
"%. c #926323",
"&. c #966A2B",
"*. c #9A722B",
"=. c #856637",
"-. c #926B34",
";. c #956C37",
":. c #9A7539",
">. c #8E733E",
",. c #A77A2A",
"<. c #B47C28",
"1. c #A37936",
"2. c #B27F37",
"3. c #A06920",
"4. c #886C46",
"5. c #8A7245",
"6. c #92754D",
"7. c #977C47",
"8. c #927B52",
"9. c #A37D45",
"0. c #199A13",
"q. c #23871A",
"w. c #2A9B1A",
"e. c #319E18",
"r. c #1AA512",
"t. c #1BB911",
"y. c #28A71A",
"u. c #29B81B",
"i. c #33AD1B",
"p. c #2ABE20",
"a. c #35AB22",
"s. c #4EB730",
"d. c #49A727",
"f. c #2ED61F",
"g. c #27C41A",
"h. c #34CE22",
"j. c #1BC410",
"k. c #40C71A",
"l. c #45C529",
"z. c #49C433",
"x. c #57D937",
"c. c #53D02C",
"v. c #77CF2A",
"b. c #52E137",
"n. c #4AE02E",
"m. c #75E62B",
"M. c #749D43",
"N. c #65D944",
"B. c #6BDE57",
"V. c #78E74A",
"C. c #75E951",
"Z. c #BB852A",
"A. c #AE8438",
"S. c #B9893A",
"D. c #BF923A",
"F. c #B99329",
"G. c #C38A37",
"H. c #C6953A",
"J. c #C7912A",
"K. c #D5A63B",
"L. c #D5AD29",
"P. c #85DF3A",
"I. c #AAEC34",
"U. c #CDF43F",
"Y. c #9C8657",
"T. c #AC8342",
"R. c #AA8649",
"E. c #B78C47",
"W. c #B99449",
"Q. c #A58554",
"!. c #BC9755",
"~. c #A3905F",
"^. c #BFA25B",
"/. c #AB996A",
"(. c #AE9971",
"). c #B3A377",
"_. c #BFA060",
"`. c #88A555",
"'. c #CA9746",
"]. c #D29C4B",
"[. c #D09741",
"{. c #C69B55",
"}. c #D5A74B",
"|. c #DAB249",
" X c #CAA55B",
".X c #D7A859",
"XX c #DBB659",
"oX c #CAA145",
"OX c #E0B548",
"+X c #E2AD52",
"@X c #E6B856",
"#X c #D5AA62",
"$X c #D9B367",
"%X c #DBBA76",
"&X c #CAAE74",
"*X c #E4B866",
"=X c #E4BB76",
"-X c #88DE49",
";X c #96E455",
":X c #8BE254",
">X c #95EC61",
",X c #A9EB76",
"<X c #A0E662",
"1X c #AFE163",
"2X c #EBC458",
"3X c #F5CB5D",
"4X c #F8D75B",
"5X c #E7C765",
"6X c #F4CB67",
"7X c #FDDB64",
"8X c #FCD567",
"9X c #E7C67A",
"0X c #ECD375",
"qX c #F4D26C",
"wX c #FFE365",
"eX c #FFE270",
"rX c #B8A985",
"tX c #BCB192",
"yX c #C5B99C",
"uX c #C8BAA3",
"iX c #B9F381",
"pX c #EBCC85",
"aX c #ECD388",
"sX c #F3DA89",
"dX c #EED595",
"fX c #F3DB94",
"gX c #E9CE93",
"hX c #D0F58F",
"jX c #F7E298",
"kX c #F7E18F",
"lX c #CFC5AE",
"zX c #DBF7A0",
"xX c #FCEAAB",
"cX c #F6E4A6",
"vX c #F8E8B9",
"bX c #EBFABF",
"nX c #EFDEB5",
"mX c #FAEDC9",
"MX c #FFF2C3",
"NX c #FFF1CE",
"BX c #FFF5D6",
/* pixels */
"                                                                                                                                ",
"                                                                                                                                ",
"                                                  m           e.                                                                ",
"                                            ;X>X          N.h.                                                                  ",
"                                        l.s.s.x.p.q.  :X,Xr.z.                                                                  ",
"                                                  y.  z.g.C.                                                                    ",
"                                        x.:X,XB.0.l.i.u.p.                                                                      ",
"                                      V.zXbX,Xl.0.t.w.                                                                          ",
"                                    N.zXhXx.r.r.j.f.    i.                                                                      ",
"                                  q.>XhXn.0.t.f.n.g.      k.  c.                                                                ",
"                                  b.iXx.0.n.>XV.b.        e.v.m.I.l.                                                            ",
"                                i.C.x.g.C.N.z.y.        m m.c.;XU.m.i.                                                          ",
"                                b.h.h.s.                i.i.a.1XI.c.d.                                                          ",
"                              a.w.w.                      d.q.-XP.v.s.                                                          ",
"                                                          c.                                                                    ",
"                                                      s.x.                                                                      ",
"                                                    -X                                                                          ",
"                                                  :X                                                                            ",
"                                                :X                                                                              ",
"                                      a A +.5.<XQ !                                                                             ",
"                              q t R Q / 4.6.`.` 4.Y.).rXtX).4.S                                                                 ",
"                            c 8 e j T Q _ 5.,XQ =.Y././.).rXrXtXyX).J                                                           ",
"                          i , 8 e h N E Q / 1XI _ 8.Y.~././.).rXtXyXlXuX;.                                                      ",
"                          i < , q z h j j I M.g g I ^ _ 4.8.Y./.rXtXyX' lX&X                                                    ",
"                          B , < 8 q y l R Q M j I _ =./ I P U ^ ' ' U U rXF.                                                    ",
"                          A K 8 , = + u 0 V 6 4 c I _ _ _ / U f =.7.P Y *.d                                                     ",
"                            1.,.= , q u V u $ p [ 0 r j j h K _.6.P o B =                                                       ",
"                            g #.oX{ 3 = 0 3 - 3 K Z x a W.^.Q.6.^ # K 2 I                                                       ",
"                              l >.1.}.K.} B u 9 p [ ..7 =.4.( ~ b 5 x                                                           ",
"                              d , 4 W Q H G Z Z i , u 7 T n n g 4 : @     I                                                     ",
"                              D #.d = @ % = , , , b i * w w w f ; = ,     k                                                     ",
"                              D $.%.%.K G i d q u > 9 & * 1 f w % t <     h                                                     ",
"                            y ! R >.$.#.&.%.%.] 0 g 3 % > 1 1 1 , = e                                                           ",
"                            k ;.#.A F ! ! +.] G 3 B 3 @ & < 8 8 < < q                                                           ",
"                            S 1.;.+.K O.%.] Z p 3 , q - D = @ X @ % <                                                           ",
"                            j -.#.#.:.T.W.A.1.] p i s + a a % w w , h 4                                                         ",
"                            E S D ! :.{.=X9X9X X:.< F ; R + & 1 f 4 S N                                                         ",
"                            =.y r q H O.E.$X9XpX%XR.F + ! Q.% = w f ; < ,                                                       ",
"                            6.E a e e H G K *.{.9X%X! y 0 -.4 r e q 8 , = 2                                                     ",
"                            Y.=.E k D ) R.#.] $.E. X7._ :./ #X&XH - O + g <                                                     ",
"                            Y.=.R E =.Q.%X%XS.] { S.$.7.#X:.A.A = &X: 5 ; : 4                                                   ",
"                            Q.=.T T ( Q.&XfXfX$X*.$.#.-.{..X:.9.;.pX=.= ; , 7 2                                                 ",
"                            8.=.W S ( =./.dXxXxXfXR.#.:.A.}.|.H.s -.4 # + = % % =                                               ",
"                            ( 5.) E R R R 9.9XcXxXaX{.W.W.}.@XH.:.Q !.+.X X X . . +   S D D V V                                 ",
"                            g 6.( T R W k h E. XpXjX9X.X].*X6X4X}.+Xp ( !.X = @ 0 h u s H O.:.E. XA.K                           ",
"                            w ~ ! R W R k k @.T..X9X9X*X]..X6X7X7X}.T.#.x i , A O.%.*.,.2.D.G.H. X=X XK                         ",
"                          7.9.- z ) ( R k e r -.2.].*X*X.X+X6X8XwX7X}.G  .c } <.}.XX5X0X0X5X5X2X@XXX%X!.                        ",
"                          ^ / ( a 3 h R S t < D &.E..X@X@X@X6X8XwX7XS.Z.[ Z.|.5XaXjXxXxXxXcXkX0X5X|..X{.,                       ",
"                            b _ 1.S.%.e 2 8 8 h ! 1.'.@X3X3X6X8XeX7X,.H.X.*XaXcXMXvXMXMXvXcXxXkX5XOX[.1.,                       ",
"                                4 -.;.+.%.x = , K #.W.].2X7X8XqX7X3X<.G.}.9XnXmXBXNXMXBXMXxXcXsXqX|.D.L ,                       ",
"                                      . . y B > h +.9.]..X6X7X7X7X+XG.[.=XgXnXmXBXNXNXMXvXxXsXqXOXJ.%.u q z                     ",
"                                          . O d % v :.{.#X*X6X4X8X[.H.}.=XgXvXmXmXmXmXxXfXfX2XK.J.K d p < z W                   ",
"                                              X s % H R.{..X.X*X3XG.'.*X=XgXdXvXvXcXcX9X$X@XJ. .B c V 9 & 9 k                   ",
"                                                3 e = H 9.T.E.#X@X].]..X=XpXpXdXaXdX9XoXD.o.} Z x v h & , ]                     ",
"                                                - d e > l &.:.T.'.E.E.{..X.X*X*X+X}.K.<.} ] J F h y , c *.                      ",
"                                                  4 G G , 3 s +.1.#.-.9.T.E.{.}.}.}.H.*.+.A R e 3 q ,.$.;                       ",
"                                                    5 O.3.Z < > 9 s G &.1.A.A.S.S.,.%.K F 0 8 C F.W.r .                         ",
"                                                      5 O.,.<.} v 9 = = , 0 q 8 q , < i } H.XX!.g o .                           ",
"                                                          N %.Z.J.X.....o. .o.L.L.2X0X9X^.U : X .                               ",
"                                                            X 4 x ] <.Z.H.'.XX}.E.f ; # . . .                                   ",
"                                                                  . O : X . + X . . . .                                         ",
"                                                                                                                                ",
"                                                                                                                                ",
"                                                                                                                                "
};
