/* XPM */
static char *_6655e74a6b2446986d790c1cc8fa4aeOoeUJKYDGjlEm77J[] = {
/* columns rows colors chars-per-pixel */
"64 60 234 2 ",
"   c None",
".  c #0D0907",
"X  c #0E0A09",
"o  c #040303",
"O  c #140D0B",
"+  c #190F0D",
"@  c #16110E",
"#  c #19110E",
"$  c #1C1412",
"%  c #1E1815",
"&  c #181216",
"*  c #24140E",
"=  c #231613",
"-  c #241916",
";  c #2A1A16",
":  c #241C1A",
">  c #2B1E1A",
",  c #341E18",
"<  c #27211D",
"1  c #2B211D",
"2  c #33231D",
"3  c #3B241C",
"4  c #39251B",
"5  c #2C1F2A",
"6  c #2C2522",
"7  c #2F2926",
"8  c #2B2A29",
"9  c #332622",
"0  c #3B2721",
"q  c #342925",
"w  c #3B2B25",
"e  c #342C29",
"r  c #3B2E2A",
"t  c #31222B",
"y  c #3C322D",
"u  c #36312D",
"i  c #3D3532",
"p  c #3F3934",
"a  c #353434",
"s  c #392C34",
"d  c #43241A",
"f  c #47291B",
"g  c #532D1F",
"h  c #592D1C",
"j  c #5B331E",
"k  c #62311E",
"l  c #432C24",
"z  c #4C2D23",
"x  c #422D29",
"c  c #462620",
"v  c #552E21",
"b  c #44332C",
"n  c #4A322B",
"m  c #4B3528",
"M  c #543324",
"N  c #5A3729",
"B  c #443632",
"V  c #443A34",
"C  c #4B3B34",
"Z  c #453E3B",
"A  c #4B3E3A",
"S  c #453238",
"D  c #523C33",
"F  c #513F3A",
"G  c #623C24",
"H  c #643C2A",
"J  c #6A3D2B",
"K  c #663727",
"L  c #713C2E",
"P  c #633D32",
"I  c #4C423C",
"U  c #5D4234",
"Y  c #52433C",
"T  c #5C443D",
"R  c #57473C",
"E  c #5F5930",
"W  c #664125",
"Q  c #6B4324",
"!  c #6B442B",
"~  c #7B4D2C",
"^  c #74472A",
"/  c #6C4934",
"(  c #61463C",
")  c #6B4736",
"_  c #744433",
"`  c #754C33",
"'  c #7C4B34",
"]  c #744C3C",
"[  c #7B4736",
"{  c #7C5133",
"}  c #7B523C",
"|  c #7C502F",
" . c #4C4542",
".. c #494847",
"X. c #524542",
"o. c #554944",
"O. c #5B4B44",
"+. c #524B49",
"@. c #5C4E4A",
"#. c #594742",
"$. c #5D524C",
"%. c #545353",
"&. c #5D5452",
"*. c #5C5C5C",
"=. c #624B44",
"-. c #684F47",
";. c #6C5145",
":. c #62544D",
">. c #6C554D",
",. c #68574A",
"<. c #775847",
"1. c #645652",
"2. c #655954",
"3. c #6B5C55",
"4. c #6B5E5A",
"5. c #725C54",
"6. c #7A5D54",
"7. c #704C41",
"8. c #6C615B",
"9. c #7B645A",
"0. c #776359",
"q. c #656565",
"w. c #6C6C6C",
"e. c #6A6867",
"r. c #756963",
"t. c #786A64",
"y. c #7D726A",
"u. c #747373",
"i. c #7C7C7C",
"p. c #797270",
"a. c #80492E",
"s. c #87592F",
"d. c #824C33",
"f. c #894D36",
"g. c #83543A",
"h. c #895638",
"j. c #95563C",
"k. c #985D2F",
"l. c #A25B37",
"z. c #98623D",
"x. c #9C713F",
"c. c #B0743C",
"v. c #875B46",
"b. c #965A48",
"n. c #A15D43",
"m. c #8D6149",
"M. c #9C6344",
"N. c #976446",
"B. c #876956",
"V. c #956C59",
"C. c #96755A",
"Z. c #A56845",
"A. c #B7774B",
"S. c #A97955",
"D. c #B57C5A",
"F. c #AF6E4B",
"G. c #826B64",
"H. c #8A6D67",
"J. c #85726B",
"K. c #8C776B",
"L. c #957566",
"P. c #8D7A73",
"I. c #887A75",
"U. c #967D74",
"Y. c #AE7C62",
"T. c #C74646",
"R. c #C1853F",
"E. c #8E8640",
"W. c #BC884C",
"Q. c #B18F57",
"!. c #B0A655",
"~. c #8D807A",
"^. c #9C857E",
"/. c #978479",
"(. c #A7897A",
"). c #BA8B74",
"_. c #B4866A",
"`. c #BCA17C",
"'. c #C68C4A",
"]. c #C9835B",
"[. c #D49A5D",
"{. c #CD944F",
"}. c #DBA456",
"|. c #E3B058",
" X c #C99767",
".X c #D59A69",
"XX c #CB9573",
"oX c #D6A470",
"OX c #E4B569",
"+X c #E8BB77",
"@X c #F5CA79",
"#X c #F0C26E",
"$X c #848383",
"%X c #8C8B8B",
"&X c #8C8582",
"*X c #9C8B82",
"=X c #978781",
"-X c #9B928B",
";X c #9C9C9C",
":X c #949494",
">X c #958F90",
",X c #A58E83",
"<X c #A3938B",
"1X c #A99488",
"2X c #B69A8C",
"3X c #A99994",
"4X c #B29C93",
"5X c #B78787",
"6X c #B9A499",
"7X c #B6A98E",
"8X c #ADADAD",
"9X c #A4A4A4",
"0X c #BBABA2",
"qX c #B5ABA4",
"wX c #B8B3AA",
"eX c #B4B3B3",
"rX c #BDBCBC",
"tX c #BBB2B3",
"yX c #D1B18E",
"uX c #CAAB9B",
"iX c #E4B885",
"pX c #C7AEA1",
"aX c #C8B4A9",
"sX c #D3BBAB",
"dX c #D4B7A7",
"fX c #C9BAB4",
"gX c #D7C4B7",
"hX c #D3C0B4",
"jX c #E2C6B1",
"kX c #F2C789",
"lX c #CACACA",
"zX c #C2C2C2",
"xX c #D9CAC2",
"cX c gray83",
/* pixels */
"                                                                                                                                ",
"                                                                5.O.0.                                                          ",
"                                                      9.A p < 0 A @.r.I p Z 6 b                                                 ",
"                                                ,.B p p r.-X1.1 :.y. .s t 6 t.t.6                                               ",
"                                            B.e 8.V 5 t s Y J.b A X.i S t & V pX4.9                                             ",
"                                          ( A /.P.: : S 5 6 2.T : V X o > t 6 qX-X6                                             ",
"                                        r b :.6Xt.6 o X = : i <.l I e q - - R wXwX+.                                            ",
"                                        @.l J.,X4Xi q : - u < 6.w w I u 7 i <XwXqXp                                             ",
"                                        R 2 P.0X0X8.i u V V ;.#.3 4 b A P.4X3X<X=Xy                                             ",
"                                        9.1 #.1X4X0X4X*XI w     -.  m m C #.5.A B                                               ",
"                                          b w @.H.U.G.Y l g 0 (                                                                 ",
"                                            ;.D b Y O.  d g f v                                                                 ",
"                                                        g M d._ ]                                                               ",
"                                                        P g h.h.g.                                                  0X3XaX      ",
"                                                        m d ] h.m.                                            U.J.2X2XG.P.      ",
"                                                        M N f J a.                                    (.^.hXsX6X<X6XaX6X*X      ",
"                                                      N.f d l.d.j.                                    0.L.XXaXgX~.aXsXgX  3X    ",
"                                                      d = f f                                         i i A uXgX6X6XsXwX3.~.    ",
"                                                    V.h * h 4                                         6 3.K.sXuXt.A q #.J.P.    ",
"                                                  d Y ! G k r.V                                     ( B : < x b #.G.3.1.t.p.    ",
"                              Z u q C b R ] ) h.N k w 4 f l m.b.` ` / y V                           I y - ;.2XpX6X=XK.&.        ",
"                              B j.J C B o.,.<.M.! ; 4 # ; z g.Z..XQ.Q.S.W. X X<.B                 m.b r 1.G.K.P.#.Z             ",
"                              b G.V.N.h.j.) V I :.C..X@X@X#X@X+X+X+X XoX#X+X+X`.yXL.P.y.y.      =.A l     6 :                   ",
"                              b 5.; > 9.P.S.Z.N.J b A  .3.y.J.I.~.~.qXtX<XfXtXrXfXK.Y I       v.M 0 r                           ",
"                            b./ T 6 : % - 2 =.G.P./.U.P.+.o.+.q 9 _.(.>X$Xr.B.<.0._.A C       n C B ]                           ",
"                            M M.>.- : : q < % : 2 w -.~.A B y  .y ,X;.<.0.4.E u  .1X6X4X    S.N 2 n M                           ",
"                          S.H h.=.J.>.U - 9 : 6 e : i G.3X3X=X:.y P.:.$.B.r.E.!.!.7XsX1X    z.N W d 3                           ",
"                          g.` ) H [ d.P ;.6.U n b 6 e P.0X3X3XI q (./.P.).P.&.!.!.*X(.0.  A.h.{ ^ z                             ",
"                          H c n._ L j.j.f.j.! n 4 T < ,XfX-X=XC 6 (.jXjXdXgXgX^.7X/.L.D   s.{ | G n                             ",
"                          f c M.j.J b.z.j.L j.d.~ -.6 1X/.*X<Xb r B 1.$ dXgXjX^.xX0XS.v.M.~ ~ Q M                               ",
"                          4 H ' _ z j.g.J M v h N P : ;.5.r.9.D Y @.@.#.9 Y Y w aXxX).9.s.^ ^ N (                               ",
"                          ; M M h G ^ ^ ! _ M ' N J 6 z F.V.Y.} K.$ aX1X>.sXsXyX@X1XpXD.W Q W l                                 ",
"                          = , _ ' / ~ { ~ { J d.' G 2 K D.v. X' J.o.^.sX,XpXxX0XhXkXiXXXc.K M                                   ",
"                          $ K / g.` ~ ~ ~ ^ ! ' ' j L.#.} J z j.D A <X0XpXfXfXhXfXsX+X].` n (                                   ",
"                          k.[ / ` 4 ! ^ ^ Q ! ~ ' C 4XA ( g.v M x.S.B r  .o.2.X.qXhXOX.X_.                                      ",
"                      2.@.I.I o.$.3.M W Q G Q C.Y C 7XI C ).z s.].b.7.T C..XiXOXB.qX XA.                                        ",
"                @.1.D 9.#.5.t.&.o.2.0 M G j =.(.b Y ,Xy F C.3 Z.b..X].<.N.oXOX|.|.W.W.h.;.                                      ",
"                0 : 3.A @.y o.6 Y Z A X v.C Y /.C O.4XD M j.[.].v.oXXX<.S.[.}.|.|.}.Z.' <.X.                                    ",
"              1.- q R 1.1.A 4.2.#.B q [ F.r Y 1Xr V.V.G { F.{.W.'.oXXX_.|.}.}..X[.Z.T.) Y 2.t.                                  ",
"              C # B Y B Y b B 3.8.$.N 0 l } R ^.y m * a.s.h.c.'.'.'.XX{.W. X Xg.Z.b.5XH Y V I                                   ",
"              ; = - - 4.2.e X.e 6 V b b w F.;.] - ; @ z m ' l.c.A.W.} U m m.U <.] _ N 0 A 1.y I                                 ",
"            R 2 > = - y :.3.$.o.2.y y > [ f.3 # $ O # 0 : h.~ z.F.D.v.D.M._ a.N x l 9 - C 0.2.2.                                ",
"            b = : r = # :.1 =.y r < < _ N q = # O ; $ 6 - { ' { z.v.[ N K 2 ; - = 1 2 b Z I Y I 8.                              ",
"            @ q b n r X O 8.X.@.y > % > > > = l > % $ 6 - N n m 3 ; = $ # $ > * , 6 i C @.2.$. .q                               ",
"          =.- - 1 T B % @ T 5.5.,.Y 1 < O - 0 = = : : < % = = = * ; $ $ ; - > O - # - r  .A Y #.y o.                            ",
"            B < y X.&. .y A o.y ,.6 > ; > 1 1 = > w Y B C p.% % ; , # # - - $ = : - w < @.y y i q                               ",
"          V > x X.A $.Z D q 5.J.$.o.1.$.=.r 9 0 - 4 eX8X8X9X&.X . O X O - = # > : 1 w : r q R Z < e                             ",
"            2.q r A +.e < B 3.e C O.9.U.4.o.2.R > &X;X:X%X$Xw...% : # . . . # = ; $ > % X.< : 6 >                               ",
"          3.- x y A I e + ; 0 P.O.V I $.I #.Y A %X%X$Xi.u.e.*.%...a 6 : % < 6 O . % O - : < $ < 6                               ",
"            < x 9 B Z % 2 r X.I B =.0.t.K. .i X.i.u.w.e.*.%.%.%.%.%.%.....8 6 < % : : : % % Z >X                                ",
"            - - - % y < ; B % @.8.6 y i y #.r =.e.q.*.*.*.*.*.*.*.q.e.w.i.%X9XrX;X%.u  .i.                                      ",
"    rXzXrXrX&X$ y F % n , B l Y r n :.>.:.A i y Z e.e.e.e.w.u.u.i.%X9XlX                                                        ",
"    zXrXrXrX9Xr O O O 2 x 0 > y O.V i V B y q b e.u.i.i.$X%X;XrXcX                                                              ",
"        lXrXeXI.B - O # w 0 9 w r 6 y V y q < <  .%X;XeXlX                                                                      ",
"            lXeX$XZ 1 + + O > w i < 6 < % q < % rX                                                                              ",
"                rX;Xq.q > O - 9 < 6 < % $ - # 7                                                                                 ",
"                    eX$X..q - 9 @ $ @ @ $ a u.                                                                                  ",
"                        8X$XZ $ 8 ..e.%X;X                                                                                      ",
"                            eX8X                                                                                                ",
"                                                                                                                                "
};
