/* XPM */
static char *b203def468194dbcacf4a028ca7f840cfuRrcN6h1Ic7d4re[] = {
/* columns rows colors chars-per-pixel */
"64 48 214 2 ",
"   c #060503",
".  c #090604",
"X  c #0C0906",
"o  c #0E0C09",
"O  c #140C06",
"+  c #190E06",
"@  c #130E0A",
"#  c #190F08",
"$  c #1C1107",
"%  c #15110D",
"&  c #1C140C",
"*  c #161411",
"=  c #1A1611",
"-  c #1D1915",
";  c #1E1C19",
":  c #21160C",
">  c #24190E",
",  c #2A1B0E",
"<  c #311E0C",
"1  c #241B13",
"2  c #2A1E13",
"3  c #231E19",
"4  c #34210E",
"5  c #2D2115",
"6  c #25211C",
"7  c #2C231B",
"8  c #332314",
"9  c #3A2612",
"0  c #372817",
"q  c #3C2916",
"w  c #32261B",
"e  c #35291D",
"r  c #3B2B1B",
"t  c #252421",
"y  c #2C2621",
"u  c #2D2925",
"i  c #2E2C2A",
"p  c #332B23",
"a  c #3B2E22",
"s  c #342E29",
"d  c #3D3024",
"f  c #35312C",
"g  c #3C332B",
"h  c #363431",
"j  c #3B3631",
"k  c #3D3934",
"l  c #3D3C39",
"z  c #422D17",
"x  c #412E1B",
"c  c #44311D",
"v  c #4A351E",
"b  c #4D381F",
"n  c #51391E",
"m  c #433423",
"M  c #493622",
"N  c #4D3924",
"B  c #42362A",
"V  c #45392D",
"C  c #4C3C2C",
"Z  c #523D24",
"A  c #513F2A",
"S  c #433B33",
"D  c #4A3E32",
"F  c #443F39",
"G  c #4F402F",
"H  c #53412D",
"J  c #5C452B",
"K  c #5A442C",
"L  c #4D4135",
"P  c #45413C",
"I  c #4B433B",
"U  c #544534",
"Y  c #594733",
"T  c #574837",
"R  c #5C4A34",
"E  c #52463A",
"W  c #54493D",
"Q  c #5B4C3C",
"!  c #5F503F",
"~  c #65492B",
"^  c #634D34",
"/  c #614F3A",
"(  c #6B5235",
")  c #64513C",
"_  c #6A553B",
"`  c #6A553C",
"'  c #705334",
"]  c #72593C",
"[  c #785D3F",
"{  c #464543",
"}  c #4B4641",
"|  c #4D4943",
" . c #544C44",
".. c #5A4E43",
"X. c #524E49",
"o. c #5C5145",
"O. c #56514B",
"+. c #5B544B",
"@. c #5C5751",
"#. c #5D5954",
"$. c #5C5956",
"%. c #645443",
"&. c #695742",
"*. c #675847",
"=. c #6C5944",
"-. c #61564A",
";. c #64594D",
":. c #6B5C4C",
">. c #735E45",
",. c #705E49",
"<. c #635B53",
"1. c #695E52",
"2. c #615F5A",
"3. c #6F604F",
"4. c #756045",
"5. c #7B6245",
"6. c #75624C",
"7. c #79664D",
"8. c #7E684C",
"9. c #6C6155",
"0. c #66615A",
"q. c #6B645B",
"w. c #6F685F",
"e. c #736454",
"r. c #796750",
"t. c #776857",
"y. c #7B6A55",
"u. c #72675A",
"i. c #74695C",
"p. c #7B6C5B",
"a. c #7E705F",
"s. c #6B6761",
"d. c #6D6862",
"f. c #6B6965",
"g. c #736C63",
"h. c #796F64",
"j. c #726F6A",
"k. c #7C7164",
"l. c #75716B",
"z. c #7B746B",
"x. c #7F786F",
"c. c #757472",
"v. c #7A7772",
"b. c #7E7972",
"n. c #836A4B",
"m. c #836F56",
"M. c #83725B",
"N. c #8A7458",
"B. c #837463",
"V. c #887763",
"C. c #8B7A64",
"Z. c #81766A",
"A. c #83796C",
"S. c #8B7D6C",
"D. c #907D62",
"F. c #837C72",
"G. c #8A7F72",
"H. c #837E78",
"J. c #8D806F",
"K. c #94826C",
"L. c #9A866B",
"P. c #8C8175",
"I. c #86827C",
"U. c #8B847B",
"Y. c #8E887F",
"T. c #948574",
"R. c #978875",
"E. c #9A8A75",
"W. c #90877C",
"Q. c #938A7E",
"!. c #9B8C7A",
"~. c #A0917E",
"^. c #898681",
"/. c #8E8A83",
"(. c #938D85",
"). c #988E81",
"_. c #9C9285",
"`. c #96928C",
"'. c #9A948B",
"]. c #9C958B",
"[. c #999692",
"{. c #9D9892",
"}. c #A49683",
"|. c #A99B87",
" X c #A1978B",
".X c #A59B8D",
"XX c #A39C93",
"oX c #A29F98",
"OX c #ACA295",
"+X c #A6A29B",
"@X c #ABA49B",
"#X c #B4A896",
"$X c #B3AA9D",
"%X c #ABA7A1",
"&X c #ADA9A3",
"*X c #B3ADA4",
"=X c #B3AFA9",
"-X c #BAB1A5",
";X c #B6B3AC",
":X c #BAB4AB",
">X c #BFB8AE",
",X c #B7B5B2",
"<X c #BBB7B2",
"1X c #BDBAB4",
"2X c #C4BAAB",
"3X c #C1BCB3",
"4X c #C8C3BB",
"5X c #CBC8C4",
"6X c #D1CCC4",
"7X c #D1CEC9",
"8X c #D5D0C8",
"9X c #DBD9D3",
"0X c #E5E3DD",
"qX c #E2E1E0",
/* pixels */
"3 u y 6 * @ @ l <.2.O. .q.F.q.W W k.(.O...u.:.u  .g y I [.H.`.S j./.(.+.<.<.X.P..X'.I q.`.(.Y.z.%X'.q.d.F./.q.P XX% * y % *   X ",
". X   X o.& : 1 : { 8 c q r 3 r e C e N v Z v c a B N m m m 7 P d *.d B a *.= d a d C z.-.r p W U g a ; g  .| W L - 7 m = o P.= ",
"o O X : +.1 & 8 g P D u +.S $X`.X.<.1.I +.X.O.g.P y 3 7 @ o @ g.h = o u #.O.X.i.P F j j * 6 f F y f 3 h S E C V L - 6 @ m w $ & ",
"1 y /.- 7 B w Q.R 6.Q u._.*.R *.-.C m m d X = a U R U Q .XR A C H C d ..m r B k q.7 f k ;.&.B.}.|.S.#.c.R V X.I.o.-.%.D * 3 s } ",
"1 - 0.1 & & 7  .K ,.D.U.m.4.^ 1 a 5 m w w {./.7 B *.%.%.A.^ N M v m 7 -.r r N & o.J V D * R r.#XC.t.{ { B 2 I I W E L D 1 O O I ",
"9.| <.0.| H./.U...<.u.).+X1Xq.I o.h.h.-.;.e.k.u.A. X:.6.%.%.Q F.F...O.* y 6 =X_.T.h.4X_.(.o.{.*Xq.#.U.+.^.<X%XX.g - * I t . o X ",
"B : > 2 7 P.6.=.U *.%.L 9.1.m m C a - m m N M x r i.N N N C C q.h.V r m % o k.H m C q.) Y ) O.e.=.H 7 e N N m x * v.D g w I > 2 ",
"% * @ 6 l P W D +.I f f I.| X.g O.g.z.q.X.2.O.s.q.-X_.<.O.6 I O.{.H.<.<.:X3X9XO.g.z.&XD +.I 5XU.o.;.+X(.C a r 8 <.g.g C w z.1 % ",
"f u 2 c a I i i g 2 ..) H a V p S m N N A c o.U Y 4.6.6.F.Z.3 m M b N l.c Z c B ,.m.M.9.z.,.Q %.:.U.:.Q e.:.3.+.$X.X}.O.7  .5 -.",
"@ I } h h f y . 2 8 +.D L I X.s b.m M x N e j a C 4.` d D F.& r r 1 m L r r Z S %.e.Z.6 <.B 7 p I S T T &.%.:.Q |.2X3XI 5 & 1 . ",
"h +.| z.z.(.4X6X).@X#X(.(.)...M.:.g y s F.u.Q 6.%.%.:XP.:.p.p.o.(.z.+.V I O.`.w.z.g.1...k.:.g.{.Q.9.1.I <.;._.g.Q.g.g.9.|  .f [.",
"| u 7 p C <.-X6X:X}.!.d W.-.C 7.:.y.6.M.Y &._ ^ J w 1.u.v N Y C D 7 X.8 B #.l.v C ..%.p.M.T Q H.u.e.:.B.i.@ `.#X Xo.%.m g j e 5 ",
"i 6 p S g s j S S S @.;X,Xl.| ;.9.F.F.&XF.u. .g S w.0X5X{.F.z.@.O.4X>XW.z.I.(.1X+X;X<.F.U.;X/.,X'.W.(.<.I 0.+.q.;.D 6 a } y y 1 ",
"g.b.2 e c v N N U.t.p.y.e. .W j y.E.}.T.B.Z.%Xo.v J ^ R U % h ` =./ C Q z.z.7 d R U C U B Q ` ^ R Y U / A.k.k.A.).B.o.4.6.r.V.S.",
"F q.8 x c v v v o.:.*.%.i.p.*.g.+.+.+.<.q.D s I q Z C U Q s X.d H H A m 3 I 1 % m d A a C U ^ D a U Y H f J.T.Q.P.T.k.m >.4.K.}.",
"z.k.| @.q.(.A.z.w.;.1.q.[.Y.+XF.1.1.G.qX(.:.p.:.L i.1X(.F.P.S.z.U.Q.1XP.k.G.(.S 7 ..@X_.z.S.P.Q.z.p F ..@X XXX;X=XXX%X<XZ.h. .x.",
"Q Q U E B | q e 0 c c r q.q q 8 x q v j Z ~ ( K >.Y V f ( _ ,.R C K S R H N N Z N N Y.-.S.E.S.T.k.L :.E U m m C L t.e.B.%.*.d s ",
"p s 3 f ;.F D 5 5 2 1 C z.g 1 $ & & p l.a e s : p P =X/.9.p p 1 3 D _.q.<.W g.d.z.T 9XF.F.;.:.q.X.<.h.;.i.9.o.D S E f ..i.W I { ",
"6 % k O.-.d :.:.i.U.N ] n.Z H g.Q ) Q R *.H a (.w m m m V g 7X8 8 c b Z c g.!..X.X2X@X-X<.s W ..q.p.S.a.Q %.) _ / %.I b.B E D L ",
"s k u  .%.p *.U Q >Xc ~ Z Z c w R K Y N m A x l.w w 1 e V & ..w w q J J K +._..X.XOXi.XX= ;.9.*.W a L -.B N H Z ^ a m 6 V E S 7 ",
"OX@XQ.T.<.'.H.p 6 F.).(.:X6X@X;X8X@XXXU.'.F.W.+XU.'.P.U.z.u.k.A.1.k.Q.*Xh.k.F.V.q. .g.}.B...W S 6 F.0.X.j j 6 } z.{.=X(.Q.OX*Xz.",
"=.*.&.M.W L Q r c M a M J L L.5.H r q 8 1.1 w r 5 1 a 1 V 5 r r m a Z C Z K H Z N K 7 [ v c v M N p.t.M.%.o.;.E 2 c M x c r s | ",
"I D  .} p } e r r 5 w e w +.C Q D B d w k 6 k 3 X.L 6 } S s g 1.9.+.O.g L S B f X.+.g.C e a :.9.p g.#.o.O.O.O.w.1. .F g  .E O.g ",
"w o t * D B m p Q *XI 7 B e 6 P i.A ^ A 7.5.^ Q [ N.8.,.=.,.o.u D e.9.W M.(.} I a r m m m e ..M x r r a I } r r e & 1 7 h | 6 5 ",
"p d } 1 d m c q 8 D e V V a m 2 W.Z J K ^ ( K Q >.N.Y :.o.U U z.Y B.I o.V % G.Q w w r c c r e e 8 5 5 w w z.8 q 8 q c x g.p 1 % ",
"+.<.q.9.| <X;X)...7 g I +.(..X@XOXA.u.<.1.k.k..X*XI 0.S S +.+._.i.0.%XU. X@Xw -...k.1.i.k.I L ;.p {.z.g./.U.b.c.*XU.V <...u S (.",
"2 : # 5 Z ..a N M r e 8 p b =.K.~.E.R.:.9 c N ( ' ~ $ ;.n v q n N y ..H U U ) r.C.9.M.^ _ ^ ` H e 1.Q #.l 3 #...w.b n ( Z 8 > ..",
"3 7 1 1 d u.B f a B e 2 p m Q %.r.M.&.-.q c q 2 w x z.g q 8 x x w I q.w V T Q ) r.q. .A C L :.*.e j U s.F j S p Y...o...m V  .I.",
"7 g 1 m C d a ! ).y.p.p S :.3Xk.p.) [ ^ / ) R p s >.n.L.S.:.T.I a 7 m m M c c F.E.S.W.$XE.z.P.v Z ( ( ] m Q.n ~ M C b q D w 5 a ",
"d 7 = w e a 7 & % u C *.f g !.3XI Z N c c Z N 1 C.L.M.T.~.!.!.Q.: 5 w x v x q 9.M.K.L.V.r.7 ..v M M v N r +.x v 8 e 8 x S 7 a r ",
" .).+.S j | z.} +.l.O. .Y.*Xw.i.+.q.+XP.z.z.I.4XA.A.g.0.f I .. .x.L 3 - 6 Y.P.D s p s <.+.P.O.O.A.XX1.p.K.k.t.o...).p.;.) %.i.Z.",
"1 2 5 C r % 1 & > M Z Z ) z.q 5.C.y.*.,.i.e A A y.V.S.p.} 2 2 8 c w 8  .U %.R R ,.] u.p.% a 7 2 9 E R ^ R U C m Q :.y.t.>.^ o.*.",
"@ & & e & s.- @ & w 8 8 8 g.& K =.` N ^ g.8 2 m T ,.6.y.f.7 2 1 g w d s S E Q Q Q Q g.d.S g D g O.#.j 6 I 1 7 p ^.X.g.{.F.| g 9.",
"1 1  .% 1 5 7 w E z.d C H C Y R g.C d 3 7 p *.K.^.m p d U m C <.&.%.,.p.*.B.R.@X X~.|.V.P.XX;.6 1 r d e r w Q :.*.,.M r f a V w ",
"p 1 u 7 2 1 B p 7 <.w A R B G Y m Z N m N A R A m 9 8 8 , 8 q  .=.Q 4.M.K.E.R.Q E.R.R.T.T.A.+.X : 8 8 1 2 y g E V ..g & 6 2 1 2 ",
"@...X.0.w.+X9.u.z.w.+.f p <.p.;.].u.-.W D g m f +.f O.w.s F I z.I.z.o.D g.w.q.| 1.D  .u.+.$Xp.A.`.Y.p.i.;.;.1.:.(.;.:.D m N w y ",
": > $ : 2 e 1 w w 2 7 e M 9.n N Z ~ ^ A ;.q q g g q x z.f u m M * $ +.8 z q 9 V q 8 R K M c M d & ..U Q Q V R =.g.w 5 2 2 2 : 6 ",
"= 6 3 y j = s g a 7 V Q R I m N R >.^ R h.L e w p 3 S f F 7 2 w 3 9.Y.a 2 2 5 1 2 g D L +.p o.a @.XXI.O.P j I P oX'.XXd.F 3 - S ",
"o O & & 1 & & 1 5 2 w ..B q 8 7 r N m W +X2 I g D U 4XW  .b.W T D X.<.0.x 9 o.&X,.e.l.w m R a f U a / m w a X.B ) 4.=.U N & O O ",
"- O > = - * 3 1 3 w p   d 9 8 D K H J C k 8 s m R m = + O + 2 2 , c.s s 8 < X k C o. .8 r v S i d e M a 1 7 O.C d H C C 5 . X . ",
"w 1 3 6 7 7 1 7 a 7 X.C.&.&.C 6.:.j.+.X.j.X.O.% % 7 w p 7 % 1 h = 6 s p w a g d & & 5 @ @ & e O.y 8 : * 2 : 2 1 8 w = : $ O + & ",
"5 : X = 1 & : > , 8 0._ R K R _ v @ , 2 o % : : @ m R C d a w 7 2 & $ > : @ q 9 4 < , * g , 8 6 = 8 , O & & & : & > @ 6 & X O O ",
"l X @ = @ X X X . X - @ i % p s.O.s.k - % % * @ 6 = = % o X & o X % 7 1 & s k % - 3 = = p s 6 f F { 3 B r $ & X & 6 * % % k % 7 ",
"= X O # & $ : * , : : , f Y > t 5 w x B < 8 6 q J 7.4 4 8 2 8 X & 3 w.w 1 w 1 a 1 8 8 o 1 & > 1 * & 8 O : 8 7 & : * 1 % 1 @ e a ",
"| % % % - 3 3 * $ 1 & & @ C w P & & 2 O @ & % 8 r w & & & % % = u f 3 O @ 1 o % . @ X   @ X .   X . X 6 { * O.#.| u -   @   o u ",
". .   X . . X O : $ % p d C V V p u a p 1 1 5 r o 8 5 2 : & i 7 & 6 : + & u * $ & % & @ @ % 2 : : 2 > 1 u + O O O O O   @ o     ",
"X X   o X X O & 2 & * B B B d V 1 u B d 7 7 w 7 % r w 8 1 & P S 1 f 1 : & i - 1 = % = % @ % 2 : > 5 5 7 u + & & + O O X % @     ",
"P o X X o @ * % $ & & : % H 8 | : > 5 % : , % q q r : , , & & $ & - 6 $ : 1 o = o & @ X & & @ X % X o - t o P P f u =   @ X % h "
};
